# xmcd CD database file
#
# Track frame offsets:
#	150
#	30865
#	51525
#	70315
#	94895
#	130745
#	149645
#	172745
#	207395
#	226060
#	241700
#	275550
#	301820
#	324450
#
# Disc length: 4585 seconds
#
# Revision: 0
# Processed by: cddbd v1.5.2PL0 Copyright (c) Steve Scherf et al.
# Submitted via: CDex 2.21
#
DISCID=bf11e70e
DTITLE=Various Artist - Omar's Blues
DYEAR=2020
DGENRE=Blues
TTITLE0=Vargas Blues Band - Walking The Back Streets
TTITLE1=Alannah Myles - Black Velvet
TTITLE2=Mica Paris and David Gilmour - I Put Spell On You
TTITLE3=The Jeff Healey Band - Blue Jeans Blues
TTITLE4=Eric Clapton and Steve Winwood - Double Trouble
TTITLE5=Robert Cray - Just A Loser
TTITLE6=Buddy Guy - What Kind Of Woman Is This
TTITLE7=Joe Bonamassa - Midnight Blues
TTITLE8=Robert Cray - Help Me Forget
TTITLE9=Buddy Guy - Texas Tango
TTITLE10=Led Zeppelin - Since I've Been Loving You
TTITLE11=Beth Hart - I'd Rather Go Blind
TTITLE12=BB King - Guess Who
TTITLE13=The Rolling Stones - Love In Vain
EXTD=YEAR: 2020
EXTT0=
EXTT1=
EXTT2=
EXTT3=
EXTT4=
EXTT5=
EXTT6=
EXTT7=
EXTT8=
EXTT9=
EXTT10=
EXTT11=
EXTT12=
EXTT13=
PLAYORDER=
